<svg xmlns="http://www.w3.org/2000/svg" width="27.23" height="173.132" viewBox="0 0 27.23 173.132">
  <g id="Group_68" data-name="Group 68" transform="translate(-747.392 -2064.199)">
    <path id="fb" d="M29.728,14.281h-4V11.658a1.068,1.068,0,0,1,1.113-1.215h2.823V6.111L25.776,6.1c-4.316,0-5.3,3.231-5.3,5.3v2.887h-2.5v4.463h2.5v12.63h5.25V18.744H29.27Z" transform="translate(737.152 2111.548)" fill="#fff"/>
    <path id="tw" d="M28.107,12.686a10.015,10.015,0,0,1-2.891.792,5.042,5.042,0,0,0,2.213-2.785,10.075,10.075,0,0,1-3.2,1.222,5.037,5.037,0,0,0-8.576,4.591A14.291,14.291,0,0,1,5.282,11.247a5.04,5.04,0,0,0,1.558,6.72,5.019,5.019,0,0,1-2.28-.63c0,.021,0,.042,0,.064A5.037,5.037,0,0,0,8.6,22.336a5.061,5.061,0,0,1-1.326.176,4.987,4.987,0,0,1-.947-.091,5.039,5.039,0,0,0,4.7,3.5A10.156,10.156,0,0,1,3.574,28,14.314,14.314,0,0,0,25.61,15.942q0-.327-.014-.652A10.194,10.194,0,0,0,28.107,12.686Z" transform="translate(746.515 2160.013)" fill="#fff"/>
    <path id="Path_1763" data-name="Path 1763" d="M34.926,33.1V23.036c0-5.394-2.879-7.9-6.72-7.9a5.789,5.789,0,0,0-5.26,2.9V15.543H17.109c.077,1.649,0,17.56,0,17.56h5.837V23.3a3.989,3.989,0,0,1,.192-1.422,3.194,3.194,0,0,1,2.994-2.134c2.113,0,2.958,1.609,2.958,3.97v9.4l5.835,0ZM10.959,13.146A3.044,3.044,0,1,0,11,7.078a3.042,3.042,0,1,0-.074,6.068ZM13.878,33.1V15.543H8.042V33.1Z" transform="translate(739.696 2057.121)" fill="#fff"/>
    <g id="Group_56" data-name="Group 56" transform="translate(755.014 2217.694)">
      <path id="Path_1816" data-name="Path 1816" d="M207,177.037V157.4l14.5,9.819Z" transform="translate(-207 -157.4)" fill="#fff"/>
    </g>
  </g>
</svg>
