<?xml version="1.0" encoding="utf-8"?>
<svg viewBox="200.897 173.462 103.976 64.309" xmlns="http://www.w3.org/2000/svg">
  <g>
    <rect id="rect19" x="238.775" y="180.34" fill="#FF5A00" width="28.138" height="50.552"/>
    <path id="XMLID_330_" fill="#EB001B" d="M 240.648 205.617 C 240.648 195.346 245.476 186.23 252.885 180.34 C 247.432 176.053 240.554 173.462 233.051 173.462 C 215.278 173.462 200.897 187.843 200.897 205.617 C 200.897 223.39 215.278 237.771 233.051 237.771 C 240.554 237.771 247.432 235.18 252.885 230.893 C 245.466 225.086 240.648 215.887 240.648 205.617 Z"/>
    <path id="path22" fill="#F79E1B" d="M 304.873 205.617 C 304.873 223.39 290.492 237.771 272.719 237.771 C 265.216 237.771 258.338 235.18 252.885 230.893 C 260.388 224.992 265.123 215.887 265.123 205.617 C 265.123 195.346 260.294 186.23 252.885 180.34 C 258.327 176.053 265.206 173.462 272.709 173.462 C 290.492 173.462 304.873 187.937 304.873 205.617 Z"/>
  </g>
</svg>