<svg xmlns="http://www.w3.org/2000/svg" width="137" height="137" viewBox="0 0 137 137">
  <g id="Group_6" data-name="Group 6" transform="translate(-919 -1601.141)">
    <path id="WhatsApp-Logo" d="M131.159,183.162c1.757-.88,10.4-5.13,12.008-5.717s2.782-.879,3.954.88,4.539,5.718,5.565,6.89,2.05,1.32,3.807.44a47.977,47.977,0,0,0,14.132-8.722,52.963,52.963,0,0,0,9.776-12.174c1.025-1.759.11-2.71-.77-3.586-.791-.787-1.758-2.053-2.636-3.079a11.975,11.975,0,0,1-1.757-2.932,3.235,3.235,0,0,1,.147-3.079c.439-.88,3.953-9.53,5.418-13.049,1.427-3.426,2.875-2.962,3.954-3.017,1.024-.051,2.2-.062,3.368-.062a6.458,6.458,0,0,1,4.686,2.2,19.711,19.711,0,0,1,6.15,14.66c0,8.65-6.3,17.006-7.175,18.179s-12.392,18.923-30.02,26.535a100.888,100.888,0,0,1-10.018,3.7,24.081,24.081,0,0,1-11.069.7c-3.376-.5-10.4-4.251-11.862-8.355s-1.464-7.624-1.025-8.357,1.611-1.173,3.368-2.053" transform="translate(824.426 1500.359)" fill-rule="evenodd"/>
    <g id="Ellipse_1" data-name="Ellipse 1" transform="translate(919 1601.141)" fill="none" stroke="#0a3c03" stroke-width="11">
      <circle cx="68.5" cy="68.5" r="68.5" stroke="none"/>
      <circle cx="68.5" cy="68.5" r="63" fill="none"/>
    </g>
  </g>
</svg>
